<svg id="2e2fa4b3-be5d-4dad-847f-eadf7c748143" data-name="Camada 1" xmlns="http://www.w3.org/2000/svg" viewBox="0 0 643.74807 585"><defs><style>.e44fd91c-71ba-4dc8-b65b-8c74f93fb139{fill:#f39c12;}.ff3a8b4e-4e7d-4bde-991b-c3c7d9e9aadc{fill:#3c8dbc;}.\39 84d315c-9005-49ab-8556-f66be6eddb42{fill:#222d32;}.\33 8b29b40-0972-43e1-ab3d-f8304fe231d4,.\34 c24f540-6a68-46fc-b322-09f021c40063,.\38 0b642c9-b77d-45e9-ba9e-882393082d64,.be4ed3fd-8c62-4840-9b5b-aa52525d71f0{fill:#ecf0f5;}.\38 0b642c9-b77d-45e9-ba9e-882393082d64{font-size:39.97445px;}.\33 8b29b40-0972-43e1-ab3d-f8304fe231d4,.\34 c24f540-6a68-46fc-b322-09f021c40063,.\38 0b642c9-b77d-45e9-ba9e-882393082d64{font-family:Anivers-Bold, Anivers;font-weight:700;}.e5b000ba-77fc-4bbb-b350-d69b25180f3e{letter-spacing:-0.03298em;}.\34 c24f540-6a68-46fc-b322-09f021c40063{font-size:28.63694px;}.\33 9265aa4-828e-4ab7-8f2c-109ff475c10e{letter-spacing:-0.03298em;}.\33 8b29b40-0972-43e1-ab3d-f8304fe231d4{font-size:42.98631px;}.\32 5d59227-7b3a-430d-9033-864d07a99c00{letter-spacing:0.008em;}.aa595f1c-a06e-4d64-af93-89271e643532{letter-spacing:-0.06em;}.\37 9acbd3e-e172-4b56-8ae2-96d4d30f1d43{letter-spacing:-0.00699em;}.ccff2da4-726d-45d8-92f6-4b2522140079{letter-spacing:0.00001em;}</style></defs><title>wallpaper-2</title><circle class="e44fd91c-71ba-4dc8-b65b-8c74f93fb139" cx="320.74819" cy="489" r="75"/><path class="ff3a8b4e-4e7d-4bde-991b-c3c7d9e9aadc" d="M615.843,103.33186A112.82039,112.82039,0,0,1,496.78414,209.548c-42.60445-2.42886-70.918-30.23037-75.46039-35.02378-3.74348-3.95035-34.5055-37.444-30.75571-84.03511C394.83576,37.46317,442.76128-19.539,509.62692-15.727A112.82039,112.82039,0,0,1,615.843,103.33186Z" transform="translate(-390.25181 213)"/><path class="984d315c-9005-49ab-8556-f66be6eddb42" d="M739.18182,225a24,24,0,1,0,24,24A24,24,0,0,0,739.18182,225Zm0,42.18182A18.18182,18.18182,0,1,1,757.36364,249,18.18182,18.18182,0,0,1,739.18182,267.18182Z" transform="translate(-390.25181 213)"/><circle class="e44fd91c-71ba-4dc8-b65b-8c74f93fb139" cx="348.93001" cy="462" r="18.18182"/><path class="984d315c-9005-49ab-8556-f66be6eddb42" d="M681,225a24,24,0,1,0,24,24A24,24,0,0,0,681,225Zm0,42.18182A18.18182,18.18182,0,1,1,699.18182,249,18.18182,18.18182,0,0,1,681,267.18182Z" transform="translate(-390.25181 213)"/><circle class="e44fd91c-71ba-4dc8-b65b-8c74f93fb139" cx="290.74819" cy="462" r="18.18182"/><rect class="984d315c-9005-49ab-8556-f66be6eddb42" x="309.65728" y="456.54545" width="18.90909" height="5.45455"/><path class="984d315c-9005-49ab-8556-f66be6eddb42" d="M674,314.93333l23.46667,13.2v-8.8L684.26667,312l13.2-7.33333V294.4Q685.73337,301.73332,674,309.06667Z" transform="translate(-390.25181 213)"/><path class="984d315c-9005-49ab-8556-f66be6eddb42" d="M747.33333,314.93333l-23.46666,13.2v-8.8l13.2-7.33333-13.2-7.33333V294.4l23.46666,14.66667Z" transform="translate(-390.25181 213)"/><polygon class="984d315c-9005-49ab-8556-f66be6eddb42" points="310.148 547 323.348 503 332.148 503 318.948 547 310.148 547"/><rect class="be4ed3fd-8c62-4840-9b5b-aa52525d71f0" x="233.74819" y="464" width="174" height="121" rx="12" ry="12"/><path class="ff3a8b4e-4e7d-4bde-991b-c3c7d9e9aadc" d="M873.36557-73.5a139.5,139.5,0,0,1-139.5,139.5c-52.765,0-89.674-32.32764-95.61876-37.9253C633.34757,23.46155,593.01547-15.72058,594.36557-73.5c1.5366-65.75948,56.68781-139.5,139.5-139.5A139.5,139.5,0,0,1,873.36557-73.5Z" transform="translate(-390.25181 213)"/><path class="ff3a8b4e-4e7d-4bde-991b-c3c7d9e9aadc" d="M1033.99825,121.16348A112.82038,112.82038,0,0,1,921.77957,234.58236c-42.673.227-72.66172-25.75879-77.49356-30.26025-3.98205-3.70975-36.76865-35.22428-35.92533-81.95843C809.3205,69.175,853.6061,9.301,920.57937,8.94479A112.82039,112.82039,0,0,1,1033.99825,121.16348Z" transform="translate(-390.25181 213)"/><text class="80b642c9-b77d-45e9-ba9e-882393082d64" transform="translate(20.65834 303.55664)">&quot;NÃO sei<tspan x="0" y="47.96924">TES</tspan><tspan class="e5b000ba-77fc-4bbb-b350-d69b25180f3e" x="64.55762" y="47.96924">T</tspan><tspan x="84.625" y="47.96924">AR...&quot;</tspan></text><text class="4c24f540-6a68-46fc-b322-09f021c40063" transform="translate(417.74819 319.9834)"><tspan xml:space="preserve">  &quot;Desenvolvedor </tspan><tspan x="0" y="34.36426" xml:space="preserve">        NÃO precisa </tspan><tspan x="0" y="68.72852" xml:space="preserve">      TES</tspan><tspan class="39265aa4-828e-4ab7-8f2c-109ff475c10e" x="86.62305" y="68.72852">T</tspan><tspan x="100.99902" y="68.72852">AR...&quot;</tspan></text><text class="38b29b40-0972-43e1-ab3d-f8304fe231d4" transform="translate(218.36733 111.64453)"><tspan xml:space="preserve">  </tspan><tspan class="25d59227-7b3a-430d-9033-864d07a99c00" x="20.20215" y="0">&quot;</tspan><tspan class="aa595f1c-a06e-4d64-af93-89271e643532" x="37.05225" y="0">T</tspan><tspan x="57.47021" y="0">estar é só </tspan><tspan x="0" y="51.5835">PERDA de </tspan><tspan x="0" y="103.16699" xml:space="preserve">     TEMP</tspan><tspan class="79acbd3e-e172-4b56-8ae2-96d4d30f1d43" x="157.8418" y="103.16699">O</tspan><tspan class="ccff2da4-726d-45d8-92f6-4b2522140079" x="187.33057" y="103.16699">...&quot;</tspan></text><path class="984d315c-9005-49ab-8556-f66be6eddb42" d="M674,314.93333l23.46667,13.2v-8.8L684.26667,312l13.2-7.33333V294.4Q685.73337,301.73332,674,309.06667Z" transform="translate(-390.25181 213)"/><path class="984d315c-9005-49ab-8556-f66be6eddb42" d="M747.33333,314.93333l-23.46666,13.2v-8.8l13.2-7.33333-13.2-7.33333V294.4l23.46666,14.66667Z" transform="translate(-390.25181 213)"/><polygon class="984d315c-9005-49ab-8556-f66be6eddb42" points="310.148 547 323.348 503 332.148 503 318.948 547 310.148 547"/><path class="ff3a8b4e-4e7d-4bde-991b-c3c7d9e9aadc" d="M597.88282,140.04012a96.07286,96.07286,0,0,0,30.65033,79.76481A160.96211,160.96211,0,0,1,550.952,188.15944Q574.41739,164.09977,597.88282,140.04012Z" transform="translate(-390.25181 213)"/><path class="ff3a8b4e-4e7d-4bde-991b-c3c7d9e9aadc" d="M762.97824,38.8591a249.15412,249.15412,0,0,0-50.61033,141.30826,191.88962,191.88962,0,0,1-36.6693-136.767Z" transform="translate(-390.25181 213)"/><path class="ff3a8b4e-4e7d-4bde-991b-c3c7d9e9aadc" d="M866.34106,192.68007c-13.43225,1.85448-27.86724,4.36874-43.11627,7.76694C807.63007,203.92224,793.195,207.87375,780,212a298.8316,298.8316,0,0,1,38.85419-68.84247Q842.59766,167.9188,866.34106,192.68007Z" transform="translate(-390.25181 213)"/></svg>