<svg id="8e0251c1-16e1-4375-adc5-48d2535eef91" data-name="Camada 1" xmlns="http://www.w3.org/2000/svg" viewBox="0 0 643.74807 585"><defs><style>.\38 596dc3d-5f8c-40d8-b936-cbc2a5c922f5{fill:#f39c12;}.dbd750fd-9d22-458e-97d0-f9ffc5b67304{fill:#dd4b39;}.\35 9a6c10f-90ae-4d10-aa19-de8b02495407{fill:#222d32;}.e0cbe786-ca79-4666-8ac9-1287d4a118f8{fill:#3c8dbc;}.c3866478-23d2-44f3-acd5-55c8a12233ad{font-size:39.97445px;}.\34 0626f15-0cf1-4c73-a56c-1722d0eaf612,.\36 3ca725c-585c-4737-b343-d5f67b40f75a,.c3866478-23d2-44f3-acd5-55c8a12233ad,.fe99b0bc-d3d1-4089-80e2-eb21a87234e3{fill:#ecf0f5;}.\34 0626f15-0cf1-4c73-a56c-1722d0eaf612,.\36 3ca725c-585c-4737-b343-d5f67b40f75a,.c3866478-23d2-44f3-acd5-55c8a12233ad{font-family:Anivers-Bold, Anivers;font-weight:700;}.d6fe74ef-f7a3-4b93-80cc-aa4dac6958dd{letter-spacing:-0.03298em;}.\36 3ca725c-585c-4737-b343-d5f67b40f75a{font-size:28.63694px;}.\34 a651f00-10b9-44a3-ba3b-3b925a35504d{letter-spacing:-0.03298em;}.\34 0626f15-0cf1-4c73-a56c-1722d0eaf612{font-size:42.98631px;}.\39 806239d-b7e6-4b75-ad98-1a83bcde4195{letter-spacing:0.008em;}.\35 ebd943d-e9d4-40f2-9802-5287b0f8a226{letter-spacing:-0.06em;}.\30 2e08f51-250f-42d1-b0ae-33c99a36b115{letter-spacing:-0.00699em;}.\33 d376be1-880f-4f42-982c-9eaf58e6af31{letter-spacing:0.00001em;}</style></defs><title>wallpaper-tcc-4</title><circle class="8596dc3d-5f8c-40d8-b936-cbc2a5c922f5" cx="320.74819" cy="489" r="75"/><path class="dbd750fd-9d22-458e-97d0-f9ffc5b67304" d="M615.843,103.33186A112.82039,112.82039,0,0,1,496.78414,209.548c-42.60445-2.42886-70.918-30.23037-75.46039-35.02378-3.74348-3.95035-34.5055-37.444-30.75571-84.03511C394.83576,37.46317,442.76128-19.539,509.62692-15.727A112.82039,112.82039,0,0,1,615.843,103.33186Z" transform="translate(-390.25181 213)"/><path class="59a6c10f-90ae-4d10-aa19-de8b02495407" d="M739.18182,225a24,24,0,1,0,24,24A24,24,0,0,0,739.18182,225Zm0,42.18182A18.18182,18.18182,0,1,1,757.36364,249,18.18182,18.18182,0,0,1,739.18182,267.18182Z" transform="translate(-390.25181 213)"/><circle class="8596dc3d-5f8c-40d8-b936-cbc2a5c922f5" cx="348.93001" cy="462" r="18.18182"/><path class="59a6c10f-90ae-4d10-aa19-de8b02495407" d="M681,225a24,24,0,1,0,24,24A24,24,0,0,0,681,225Zm0,42.18182A18.18182,18.18182,0,1,1,699.18182,249,18.18182,18.18182,0,0,1,681,267.18182Z" transform="translate(-390.25181 213)"/><circle class="8596dc3d-5f8c-40d8-b936-cbc2a5c922f5" cx="290.74819" cy="462" r="18.18182"/><rect class="59a6c10f-90ae-4d10-aa19-de8b02495407" x="309.65728" y="456.54545" width="18.90909" height="5.45455"/><path class="59a6c10f-90ae-4d10-aa19-de8b02495407" d="M674,314.93333l23.46667,13.2v-8.8L684.26667,312l13.2-7.33333V294.4Q685.73337,301.73332,674,309.06667Z" transform="translate(-390.25181 213)"/><path class="59a6c10f-90ae-4d10-aa19-de8b02495407" d="M747.33333,314.93333l-23.46666,13.2v-8.8l13.2-7.33333-13.2-7.33333V294.4l23.46666,14.66667Z" transform="translate(-390.25181 213)"/><polygon class="59a6c10f-90ae-4d10-aa19-de8b02495407" points="310.148 547 323.348 503 332.148 503 318.948 547 310.148 547"/><rect class="e0cbe786-ca79-4666-8ac9-1287d4a118f8" x="233.74819" y="464" width="174" height="121" rx="12" ry="12"/><path class="dbd750fd-9d22-458e-97d0-f9ffc5b67304" d="M873.36557-73.5a139.5,139.5,0,0,1-139.5,139.5c-52.765,0-89.674-32.32764-95.61876-37.9253C633.34757,23.46155,593.01547-15.72058,594.36557-73.5c1.5366-65.75948,56.68781-139.5,139.5-139.5A139.5,139.5,0,0,1,873.36557-73.5Z" transform="translate(-390.25181 213)"/><path class="dbd750fd-9d22-458e-97d0-f9ffc5b67304" d="M1033.99825,121.16348A112.82038,112.82038,0,0,1,921.77957,234.58236c-42.673.227-72.66172-25.75879-77.49356-30.26025-3.98205-3.70975-36.76865-35.22428-35.92533-81.95843C809.3205,69.175,853.6061,9.301,920.57937,8.94479A112.82039,112.82039,0,0,1,1033.99825,121.16348Z" transform="translate(-390.25181 213)"/><text class="c3866478-23d2-44f3-acd5-55c8a12233ad" transform="translate(20.65834 303.55664)">&quot;NÃO sei<tspan x="0" y="47.96924">TES</tspan><tspan class="d6fe74ef-f7a3-4b93-80cc-aa4dac6958dd" x="64.55762" y="47.96924">T</tspan><tspan x="84.625" y="47.96924">AR...&quot;</tspan></text><text class="63ca725c-585c-4737-b343-d5f67b40f75a" transform="translate(417.74819 319.9834)"><tspan xml:space="preserve">  &quot;Desenvolvedor </tspan><tspan x="0" y="34.36426" xml:space="preserve">        NÃO precisa </tspan><tspan x="0" y="68.72852" xml:space="preserve">      TES</tspan><tspan class="4a651f00-10b9-44a3-ba3b-3b925a35504d" x="86.62305" y="68.72852">T</tspan><tspan x="100.99902" y="68.72852">AR...&quot;</tspan></text><text class="40626f15-0cf1-4c73-a56c-1722d0eaf612" transform="translate(218.36733 111.64453)"><tspan xml:space="preserve">  </tspan><tspan class="9806239d-b7e6-4b75-ad98-1a83bcde4195" x="20.20215" y="0">&quot;</tspan><tspan class="5ebd943d-e9d4-40f2-9802-5287b0f8a226" x="37.05225" y="0">T</tspan><tspan x="57.47021" y="0">estar é só </tspan><tspan x="0" y="51.5835">PERDA de </tspan><tspan x="0" y="103.16699" xml:space="preserve">     TEMP</tspan><tspan class="02e08f51-250f-42d1-b0ae-33c99a36b115" x="157.8418" y="103.16699">O</tspan><tspan class="3d376be1-880f-4f42-982c-9eaf58e6af31" x="187.33057" y="103.16699">...&quot;</tspan></text><path class="fe99b0bc-d3d1-4089-80e2-eb21a87234e3" d="M674,314.93333l23.46667,13.2v-8.8L684.26667,312l13.2-7.33333V294.4Q685.73337,301.73332,674,309.06667Z" transform="translate(-390.25181 213)"/><path class="fe99b0bc-d3d1-4089-80e2-eb21a87234e3" d="M747.33333,314.93333l-23.46666,13.2v-8.8l13.2-7.33333-13.2-7.33333V294.4l23.46666,14.66667Z" transform="translate(-390.25181 213)"/><polygon class="fe99b0bc-d3d1-4089-80e2-eb21a87234e3" points="310.148 547 323.348 503 332.148 503 318.948 547 310.148 547"/><path class="dbd750fd-9d22-458e-97d0-f9ffc5b67304" d="M597.88282,140.04012a96.07286,96.07286,0,0,0,30.65033,79.76481A160.96211,160.96211,0,0,1,550.952,188.15944Q574.41739,164.09977,597.88282,140.04012Z" transform="translate(-390.25181 213)"/><path class="dbd750fd-9d22-458e-97d0-f9ffc5b67304" d="M762.97824,38.8591a249.15412,249.15412,0,0,0-50.61033,141.30826,191.88962,191.88962,0,0,1-36.6693-136.767Z" transform="translate(-390.25181 213)"/><path class="dbd750fd-9d22-458e-97d0-f9ffc5b67304" d="M866.34106,192.68007c-13.43225,1.85448-27.86724,4.36874-43.11627,7.76694C807.63007,203.92224,793.195,207.87375,780,212a298.8316,298.8316,0,0,1,38.85419-68.84247Q842.59766,167.9188,866.34106,192.68007Z" transform="translate(-390.25181 213)"/><path class="59a6c10f-90ae-4d10-aa19-de8b02495407" d="M759,247H720a19.56195,19.56195,0,0,1,39,0Z" transform="translate(-390.25181 213)"/><path class="59a6c10f-90ae-4d10-aa19-de8b02495407" d="M700,247H661a19.56195,19.56195,0,0,1,39,0Z" transform="translate(-390.25181 213)"/></svg>