<svg id="8642bd4b-49b8-4c35-9572-e48cff5fb5dc" data-name="Camada 1" xmlns="http://www.w3.org/2000/svg" viewBox="0 0 643.74807 585"><defs><style>.\39 edc8be0-ab9f-4b67-987d-fc600041ecf8{fill:#f39c12;}.\34 cafc54c-f94d-403a-8622-d4218eb6fbeb{fill:#dd4b39;}.\35 bcca8c4-3552-4046-be66-90a49181156a{fill:#222d32;}.a9066d7d-aa14-4098-bc7e-f72220f79c2d{fill:#3c8dbc;}.c419a9d9-97b4-440a-a688-cb0d6c9b6fc7{fill:#ecf0f5;}</style></defs><title>wallpaper-tcc-4</title><circle class="9edc8be0-ab9f-4b67-987d-fc600041ecf8" cx="320.74819" cy="489" r="75"/><path class="4cafc54c-f94d-403a-8622-d4218eb6fbeb" d="M615.843,103.33186A112.82039,112.82039,0,0,1,496.78414,209.548c-42.60445-2.42886-70.918-30.23037-75.46039-35.02378-3.74348-3.95035-34.5055-37.444-30.75571-84.03511C394.83576,37.46317,442.76128-19.539,509.62692-15.727A112.82039,112.82039,0,0,1,615.843,103.33186Z" transform="translate(-390.25181 213)"/><path class="5bcca8c4-3552-4046-be66-90a49181156a" d="M739.18182,225a24,24,0,1,0,24,24A24,24,0,0,0,739.18182,225Zm0,42.18182A18.18182,18.18182,0,1,1,757.36364,249,18.18182,18.18182,0,0,1,739.18182,267.18182Z" transform="translate(-390.25181 213)"/><circle class="9edc8be0-ab9f-4b67-987d-fc600041ecf8" cx="348.93001" cy="462" r="18.18182"/><path class="5bcca8c4-3552-4046-be66-90a49181156a" d="M681,225a24,24,0,1,0,24,24A24,24,0,0,0,681,225Zm0,42.18182A18.18182,18.18182,0,1,1,699.18182,249,18.18182,18.18182,0,0,1,681,267.18182Z" transform="translate(-390.25181 213)"/><circle class="9edc8be0-ab9f-4b67-987d-fc600041ecf8" cx="290.74819" cy="462" r="18.18182"/><rect class="5bcca8c4-3552-4046-be66-90a49181156a" x="309.65728" y="456.54545" width="18.90909" height="5.45455"/><path class="5bcca8c4-3552-4046-be66-90a49181156a" d="M674,314.93333l23.46667,13.2v-8.8L684.26667,312l13.2-7.33333V294.4Q685.73337,301.73332,674,309.06667Z" transform="translate(-390.25181 213)"/><path class="5bcca8c4-3552-4046-be66-90a49181156a" d="M747.33333,314.93333l-23.46666,13.2v-8.8l13.2-7.33333-13.2-7.33333V294.4l23.46666,14.66667Z" transform="translate(-390.25181 213)"/><polygon class="5bcca8c4-3552-4046-be66-90a49181156a" points="310.148 547 323.348 503 332.148 503 318.948 547 310.148 547"/><rect class="a9066d7d-aa14-4098-bc7e-f72220f79c2d" x="233.74819" y="464" width="174" height="121" rx="12" ry="12"/><path class="4cafc54c-f94d-403a-8622-d4218eb6fbeb" d="M873.36557-73.5a139.5,139.5,0,0,1-139.5,139.5c-52.765,0-89.674-32.32764-95.61876-37.9253C633.34757,23.46155,593.01547-15.72058,594.36557-73.5c1.5366-65.75948,56.68781-139.5,139.5-139.5A139.5,139.5,0,0,1,873.36557-73.5Z" transform="translate(-390.25181 213)"/><path class="4cafc54c-f94d-403a-8622-d4218eb6fbeb" d="M1033.99825,121.16348A112.82038,112.82038,0,0,1,921.77957,234.58236c-42.673.227-72.66172-25.75879-77.49356-30.26025-3.98205-3.70975-36.76865-35.22428-35.92533-81.95843C809.3205,69.175,853.6061,9.301,920.57937,8.94479A112.82039,112.82039,0,0,1,1033.99825,121.16348Z" transform="translate(-390.25181 213)"/><path class="c419a9d9-97b4-440a-a688-cb0d6c9b6fc7" d="M413.269,71.44727l-.56006-7.59571.28028-.28027h4.2373l.27979.28027-.55957,7.59571-.27979.27978h-3.11816Zm6.95606,0-.55957-7.59571.27978-.28027h4.23731l.28027.28027-.56006,7.59571-.27978.27978h-3.11817Z" transform="translate(-390.25181 213)"/><path class="c419a9d9-97b4-440a-a688-cb0d6c9b6fc7" d="M429.73779,64.01123l.27979-.27978,3.998-.48.35986.16016L445.64893,79.5625l1.51953,2.55859V64.05127l.27978-.27979,4.39746-.52.27979.27979V90.27686l-.27979.27978h-4.03759l-.35987-.23975-11.354-16.271L434.69531,71.647V90.27686l-.28027.27978h-4.39746l-.27979-.27978Z" transform="translate(-390.25181 213)"/><path class="c419a9d9-97b4-440a-a688-cb0d6c9b6fc7" d="M465.27539,64.05127l.27979-.27979,4.4375-.52.27978.27979,9.59473,26.74561-.27979.27978h-4.59717l-.28027-.27978-2.03857-6.1167h-9.59473l-2.03906,6.1167-.27979.27978h-4.59765l-.27979-.27978Zm-3.63818-5.07715-.03955-.35986a5.40717,5.40717,0,0,1,4.39746-3.03858c1.8789,0,2.59863,1.71924,3.99756,1.71924.83984,0,1.79931-1.35937,1.79931-1.35937l.39942-.04,1.83935,1.59912.03955.35986a5.40717,5.40717,0,0,1-4.39746,3.03858c-1.8789,0-2.59863-1.71924-3.99756-1.71924-.83984,0-1.79931,1.35937-1.79931,1.35937l-.39942.04ZM471.272,80.00244l-2.67822-8.03564-.71973-2.63867-.71972,2.63867-2.67871,8.03564Z" transform="translate(-390.25181 213)"/><path class="c419a9d9-97b4-440a-a688-cb0d6c9b6fc7" d="M482.62305,73.28613c0-6.59619,4.39746-10.11425,11.27392-10.11425,6.95606,0,11.31348,3.51806,11.31348,10.11425V81.042c0,6.55615-4.35742,9.99414-11.31348,9.99414-6.87646,0-11.27392-3.438-11.27392-9.99414ZM493.897,86.63867c3.67774,0,6.27637-1.83887,6.27637-5.9165V73.56592c0-3.95752-2.59863-5.99658-6.27637-5.99658-3.59814,0-6.23681,2.03906-6.23681,5.99658v7.15625C487.66016,84.7998,490.29883,86.63867,493.897,86.63867Z" transform="translate(-390.25181 213)"/><path class="c419a9d9-97b4-440a-a688-cb0d6c9b6fc7" d="M518.71924,88.398l2.27881-2.9585.3999-.04a8.60177,8.60177,0,0,0,4.27734,1.519c1.6792,0,3.23828-.43946,3.23828-2.27881,0-1.19922-1.63916-1.71875-3.39794-2.23828-2.9585-.87989-6.55665-2.0791-6.55665-6.15674,0-4.39795,4.07813-6.27686,8.03565-6.27686a10.92655,10.92655,0,0,1,6.19678,1.999l.04.3999-2.31885,2.9585-.35987.04a7.22659,7.22659,0,0,0-3.478-1.27929c-1.87891,0-3.23828.79931-3.23828,2.15869,0,1.35889,1.6792,1.87891,3.51806,2.39844,2.9585.83984,6.43653,1.8789,6.43653,5.99658,0,4.91748-3.75782,6.39648-7.99561,6.39648a12.06232,12.06232,0,0,1-6.99609-2.23828Z" transform="translate(-390.25181 213)"/><path class="c419a9d9-97b4-440a-a688-cb0d6c9b6fc7" d="M537.42676,77.36377c0-4.63721,3.398-7.396,8.395-7.396,5.71679,0,7.75586,3.31836,7.75586,6.3169,0,3.99756-3.19825,6.23633-6.63623,6.23633a5.61565,5.61565,0,0,1-4.99756-2.59864l.27978,1.91895v.99951c0,2.87842,1.43946,4.07764,3.67823,4.07764a4.04527,4.04527,0,0,0,3.87793-1.99854l.35986-.20019,3.71777,1.19922.2002.35986c-1.19971,3.03857-4.31787,4.75732-7.9961,4.75732-5.43652,0-8.63476-2.47851-8.63476-7.27588Zm7.63574,1.31934c2.03857,0,3.59766-.51954,3.59766-2.5586,0-.99951-.8794-1.999-2.958-1.999-2.19922,0-3.47852,1.19971-3.47852,3.67822v.35986A6.92168,6.92168,0,0,0,545.0625,78.68311Z" transform="translate(-390.25181 213)"/><path class="c419a9d9-97b4-440a-a688-cb0d6c9b6fc7" d="M558.17334,66.29V61.97217l.27979-.23975h4.4375l.27978.23975V66.29l-.27978.23975h-4.4375Zm.07959,4.67725.28027-.27979,4.23731-.55957.28027.27978V90.27686l-.28027.27978H558.5332l-.28027-.27978Z" transform="translate(-390.25181 213)"/><path class="c419a9d9-97b4-440a-a688-cb0d6c9b6fc7" d="M419.10547,115.93848h-7.356l-.27978-.28028v-3.83789l.27978-.27978h20.34912l.19971.31982-.99951,3.87793-.35987.2002h-6.876v22.30761l-.27979.27979h-4.39746l-.28027-.27979Z" transform="translate(-390.25181 213)"/><path class="c419a9d9-97b4-440a-a688-cb0d6c9b6fc7" d="M435.77393,111.82031l.27978-.27978h15.31152l.28028.27978v3.83789l-.28028.28028H440.73145v6.23632h9.35449l.20019.31983-.99951,3.87793-.35986.19971h-8.19531v7.55615h10.7539l.23975.31982-.55957,3.83789-.31983.23975h-14.792l-.27978-.27979Z" transform="translate(-390.25181 213)"/><path class="c419a9d9-97b4-440a-a688-cb0d6c9b6fc7" d="M455.561,135.76758l2.35888-3.11865.39942-.03955a10.23514,10.23514,0,0,0,5.67724,1.99853c2.39844,0,4.4375-.99951,4.4375-3.71777,0-2.31885-2.27881-3.19825-4.71728-4.11768-3.3584-1.2793-7.23633-2.79883-7.23633-7.63574,0-4.99756,4.03808-7.99561,8.79541-7.99561a13.44121,13.44121,0,0,1,7.79541,2.3584l.08008.3999-2.11866,3.23829-.3999.08007a8.90019,8.90019,0,0,0-5.19726-1.6792c-2.67823,0-3.918,1.439-3.918,3.478s2.15918,2.91846,4.438,3.75781c3.438,1.23926,7.51562,2.91846,7.51562,8.07569,0,6.23681-5.19726,8.15576-9.47461,8.15576a15.51114,15.51114,0,0,1-8.35547-2.83887Z" transform="translate(-390.25181 213)"/><path class="c419a9d9-97b4-440a-a688-cb0d6c9b6fc7" d="M483.66309,115.93848h-7.356l-.27979-.28028v-3.83789l.27979-.27978h20.34912l.19971.31982-.99951,3.87793-.35987.2002h-6.876v22.30761l-.27979.27979h-4.39746l-.28027-.27979Z" transform="translate(-390.25181 213)"/><path class="c419a9d9-97b4-440a-a688-cb0d6c9b6fc7" d="M505.12988,112.02051l.27979-.27979,4.4375-.52.27978.28028,9.59473,26.74511-.27979.27979h-4.59716l-.28028-.27979-2.03857-6.1167h-9.59473l-2.03906,6.1167-.27979.27979h-4.59765l-.27979-.27979Zm5.99658,15.95117-2.67822-8.03564-.71972-2.63868-.71973,2.63868-2.67871,8.03564Z" transform="translate(-390.25181 213)"/><path class="c419a9d9-97b4-440a-a688-cb0d6c9b6fc7" d="M523.397,111.82031l.27979-.27978h7.83594c4.957,0,9.99414,2.0791,9.99414,8.1958,0,6.95605-6.67627,7.79541-6.67627,7.79541l1.11963,1.35937,2.83837,4.07764a3.06634,3.06634,0,0,0,2.51856,1.35938,4.42952,4.42952,0,0,0,1.2793-.15967l.27978.27978-.63965,3.83789-.27978.27979a13.93492,13.93492,0,0,1-1.39893.08008,7.2965,7.2965,0,0,1-6.03711-3.39844l-4.6372-7.15576-.39991-.24024h-1.11914v10.39453l-.28027.27979h-4.39746l-.27979-.27979Zm8.1958,11.87354c2.79834,0,4.957-1.0791,4.957-3.95752s-2.15869-3.958-4.957-3.958h-3.23828v7.91553Z" transform="translate(-390.25181 213)"/><path class="c419a9d9-97b4-440a-a688-cb0d6c9b6fc7" d="M546.70117,133.36865l.28028-.27978h4.87695l.28027.27978v4.87744l-.28027.27979h-4.87695l-.28028-.27979Z" transform="translate(-390.25181 213)"/><path class="c419a9d9-97b4-440a-a688-cb0d6c9b6fc7" d="M556.93457,133.36865l.28027-.27978h4.877l.28027.27978v4.87744l-.28027.27979h-4.877l-.28027-.27979Z" transform="translate(-390.25181 213)"/><path class="c419a9d9-97b4-440a-a688-cb0d6c9b6fc7" d="M567.168,133.36865l.28027-.27978h4.877l.28027.27978v4.87744l-.28027.27979h-4.877l-.28027-.27979Z" transform="translate(-390.25181 213)"/><path class="c419a9d9-97b4-440a-a688-cb0d6c9b6fc7" d="M577.36133,119.4165l-.56006-7.59619.27978-.27978h4.2378l.27978.27978-.55957,7.59619-.27978.27979h-3.11817Zm6.95605,0-.55957-7.59619.27979-.27978h4.23779l.27979.27978-.56006,7.59619-.27979.27979h-3.11816Z" transform="translate(-390.25181 213)"/><path class="c419a9d9-97b4-440a-a688-cb0d6c9b6fc7" d="M823.14844,93.293l-.40039-5.44141.20019-.20068h3.03614l.20019.20068-.40039,5.44141-.20117.20068h-2.2334Zm4.9834,0-.40039-5.44141.20019-.20068h3.03613l.2002.20068-.40039,5.44141-.20117.20068H828.333Z" transform="translate(-390.25181 213)"/><path class="c419a9d9-97b4-440a-a688-cb0d6c9b6fc7" d="M834.94727,87.85156l.20019-.20068h6.98828c4.92578,0,8.04785,2.4917,8.04785,7.16016v5.06933c0,4.72608-3.12207,7.103-8.04785,7.103h-6.98828l-.20019-.20069Zm7.18847,15.98145c2.57715,0,4.43946-1.28906,4.43946-4.18164V95.04c0-2.86377-1.86231-4.23877-4.43946-4.23877h-3.63769V103.833Z" transform="translate(-390.25181 213)"/><path class="c419a9d9-97b4-440a-a688-cb0d6c9b6fc7" d="M853.50293,97.53174c0-3.32227,2.43457-5.29834,6.01465-5.29834,4.0957,0,5.55664,2.37695,5.55664,4.52539a4.467,4.467,0,0,1-4.75488,4.46777,4.02231,4.02231,0,0,1-3.58008-1.86181l.20019,1.375v.71582c0,2.0625,1.03125,2.92138,2.63575,2.92138a2.89675,2.89675,0,0,0,2.77734-1.43213l.25781-.14306,2.66406.85937.14356.25782c-.85938,2.17675-3.09375,3.4082-5.72852,3.4082-3.8955,0-6.18652-1.77588-6.18652-5.21289Zm5.4707.94531c1.46,0,2.57715-.37207,2.57715-1.833,0-.71582-.62988-1.43213-2.11914-1.43213-1.57519,0-2.49219.85938-2.49219,2.63526V98.105A4.9623,4.9623,0,0,0,858.97363,98.47705Z" transform="translate(-390.25181 213)"/><path class="c419a9d9-97b4-440a-a688-cb0d6c9b6fc7" d="M867.5918,105.437l1.63281-2.11963.28613-.02881a6.161,6.161,0,0,0,3.06446,1.08838c1.20312,0,2.31933-.31494,2.31933-1.63232,0-.85938-1.17383-1.23145-2.43359-1.604-2.12012-.62989-4.69727-1.48926-4.69727-4.41065,0-3.15039,2.9209-4.49658,5.75684-4.49658A7.8279,7.8279,0,0,1,877.96,93.66553l.02832.28613-1.66113,2.11963-.25781.02881a5.17938,5.17938,0,0,0-2.49219-.91651c-1.3457,0-2.31934.57276-2.31934,1.54639s1.20313,1.34619,2.52051,1.71826c2.11914.60156,4.61035,1.34619,4.61035,4.29639,0,3.52295-2.6914,4.58252-5.72754,4.58252a8.64617,8.64617,0,0,1-5.01269-1.604Z" transform="translate(-390.25181 213)"/><path class="c419a9d9-97b4-440a-a688-cb0d6c9b6fc7" d="M880.99316,97.53174c0-3.32227,2.43457-5.29834,6.01465-5.29834,4.09571,0,5.55664,2.37695,5.55664,4.52539a4.467,4.467,0,0,1-4.75488,4.46777,4.02231,4.02231,0,0,1-3.58008-1.86181l.2002,1.375v.71582c0,2.0625,1.03125,2.92138,2.63574,2.92138a2.89674,2.89674,0,0,0,2.77734-1.43213l.25782-.14306,2.66406.85937.14355.25782c-.85937,2.17675-3.09375,3.4082-5.72851,3.4082-3.89551,0-6.18653-1.77588-6.18653-5.21289Zm5.47071.94531c1.46,0,2.57715-.37207,2.57715-1.833,0-.71582-.62989-1.43213-2.11914-1.43213-1.5752,0-2.49219.85938-2.49219,2.63526V98.105A4.96223,4.96223,0,0,0,886.46387,98.47705Z" transform="translate(-390.25181 213)"/><path class="c419a9d9-97b4-440a-a688-cb0d6c9b6fc7" d="M896.05566,95.89941l-.83105-2.92138.17187-.229,2.77832-.37256.2295.17188.916,2.2915a4.26925,4.26925,0,0,1,4.00977-2.60644c2.34863,0,4.583,1.68994,4.583,5.041v9.5083l-.2002.20069h-3.03613l-.20117-.20069V97.87549c0-1.97608-1.11621-2.77783-2.49121-2.77783a15.70448,15.70448,0,0,0-2.49219.42968v11.25537l-.2002.20069h-3.03613l-.2002-.20069Z" transform="translate(-390.25181 213)"/><path class="c419a9d9-97b4-440a-a688-cb0d6c9b6fc7" d="M910.03027,92.978l.17188-.229,3.32226-.34375.22852.17188,2.66406,8.53467.60156,2.32031.60157-2.32031,2.49121-8.13379.22949-.229,3.37891-.34375.22949.17188-5.44141,14.521-.22949.17188-2.86426-.57324-.20019-.229Z" transform="translate(-390.25181 213)"/><path class="c419a9d9-97b4-440a-a688-cb0d6c9b6fc7" d="M925.58008,97.4458c0-3.37939,2.60644-5.2124,6.07226-5.2124,3.46485,0,6.07129,1.833,6.07129,5.2124v4.66846c0,3.37988-2.60644,5.21289-6.07129,5.21289-3.46582,0-6.07226-1.833-6.07226-5.21289Zm6.07226,6.93115a2.43637,2.43637,0,0,0,2.63477-2.7207V97.87549a2.41474,2.41474,0,0,0-2.63477-2.6919,2.39015,2.39015,0,0,0-2.63574,2.6919v3.78076A2.41133,2.41133,0,0,0,931.65234,104.37695Z" transform="translate(-390.25181 213)"/><path class="c419a9d9-97b4-440a-a688-cb0d6c9b6fc7" d="M941.12988,86.47656l.2002-.20019,3.03613-.40137.2002.20068v16.92676c0,.77295.65918,1.03076,1.31738,1.03076h.20117l.2002.20069-.42969,2.60644-.2002.2002c-.02832,0-.31543.02881-.54394.02881-1.08887,0-3.98145-.28663-3.98145-3.58008Z" transform="translate(-390.25181 213)"/><path class="c419a9d9-97b4-440a-a688-cb0d6c9b6fc7" d="M947.42969,92.978l.17187-.229,3.32227-.34375.22851.17188,2.66407,8.53467.60156,2.32031.60156-2.32031,2.49121-8.13379.22949-.229,3.37891-.34375.22949.17188-5.4414,14.521-.2295.17188-2.86425-.57324-.2002-.229Z" transform="translate(-390.25181 213)"/><path class="c419a9d9-97b4-440a-a688-cb0d6c9b6fc7" d="M962.97949,97.53174c0-3.32227,2.43457-5.29834,6.01465-5.29834,4.0957,0,5.55664,2.37695,5.55664,4.52539a4.467,4.467,0,0,1-4.75488,4.46777,4.02231,4.02231,0,0,1-3.58008-1.86181l.2002,1.375v.71582c0,2.0625,1.03125,2.92138,2.63574,2.92138a2.89674,2.89674,0,0,0,2.77734-1.43213l.25781-.14306,2.66407.85937.14355.25782c-.85937,2.17675-3.09375,3.4082-5.72851,3.4082-3.89551,0-6.18653-1.77588-6.18653-5.21289Zm5.47071.94531c1.46,0,2.57714-.37207,2.57714-1.833,0-.71582-.62988-1.43213-2.11914-1.43213-1.57519,0-2.49218.85938-2.49218,2.63526V98.105A4.96223,4.96223,0,0,0,968.4502,98.47705Z" transform="translate(-390.25181 213)"/><path class="c419a9d9-97b4-440a-a688-cb0d6c9b6fc7" d="M977.46875,97.4458c0-3.29346,2.46387-5.2124,5.55664-5.2124a5.07,5.07,0,0,1,2.86426.83056l-.17188-1.48925V86.47656l.2002-.20019,3.03613-.40137.2002.20068v17.58545l.83105,2.92139-.17187.229-2.77832.37256-.2295-.17187-.916-2.29151a3.96285,3.96285,0,0,1-3.78027,2.60645c-2.34864,0-4.64063-1.68994-4.64063-5.041Zm5.98633,7.01709a13.39506,13.39506,0,0,0,2.26269-.42969V97.56055a2.12048,2.12048,0,0,0-2.37695-2.377,2.37842,2.37842,0,0,0-2.43457,2.6919v3.80957A2.44309,2.44309,0,0,0,983.45508,104.46289Z" transform="translate(-390.25181 213)"/><path class="c419a9d9-97b4-440a-a688-cb0d6c9b6fc7" d="M992.76074,97.4458c0-3.37939,2.60645-5.2124,6.07227-5.2124,3.46484,0,6.07129,1.833,6.07129,5.2124v4.66846c0,3.37988-2.60645,5.21289-6.07129,5.21289-3.46582,0-6.07227-1.833-6.07227-5.21289Zm6.07227,6.93115a2.43637,2.43637,0,0,0,2.63476-2.7207V97.87549a2.41473,2.41473,0,0,0-2.63476-2.6919,2.39015,2.39015,0,0,0-2.63574,2.6919v3.78076A2.41133,2.41133,0,0,0,998.833,104.37695Z" transform="translate(-390.25181 213)"/><path class="c419a9d9-97b4-440a-a688-cb0d6c9b6fc7" d="M1008.48242,95.89941l-.83105-2.92138.17187-.229,2.77832-.37256.22949.17188.916,2.2915a3.95077,3.95077,0,0,1,4.06738-2.66357l.2002.229-.31445,3.32227-.25782.20068a7.04862,7.04862,0,0,0-2.5498-.48681,3.52785,3.52785,0,0,0-.97363.08593v11.25537l-.2002.20069h-3.03613l-.2002-.20069Z" transform="translate(-390.25181 213)"/><path class="c419a9d9-97b4-440a-a688-cb0d6c9b6fc7" d="M864.32813,122.33008l.20019-.2002,2.86426-.34375.25781.11426,8.07617,11.57129,1.08887,1.833v-12.9458l.2002-.20069,3.15039-.37207.20019.2002V141.147l-.20019.20069h-2.89258l-.25781-.17188L868.88184,129.519l-1.00293-1.71826V141.147l-.2002.20069h-3.15039l-.20019-.20069Z" transform="translate(-390.25181 213)"/><path class="c419a9d9-97b4-440a-a688-cb0d6c9b6fc7" d="M889.78613,122.35889l.2002-.20069,3.17871-.37207.20117.2002,6.874,19.16064-.20117.20069h-3.29394l-.2002-.20069-1.46094-4.38183h-6.873L886.75,141.147l-.2002.20069h-3.29394l-.2002-.20069Zm-2.60644-3.63721-.02832-.25781a3.87349,3.87349,0,0,1,3.15039-2.17676c1.3457,0,1.86133,1.23144,2.86328,1.23144.60156,0,1.28906-.97363,1.28906-.97363l.28711-.02881,1.31738,1.14551.02832.25781a3.87482,3.87482,0,0,1-3.15039,2.17676c-1.34668,0-1.86132-1.23144-2.86425-1.23144-.60157,0-1.28907.97363-1.28907.97363l-.28613.02881Zm6.90234,15.06494-1.91894-5.75683-.51563-1.89014-.51562,1.89014-1.91895,5.75683Z" transform="translate(-390.25181 213)"/><path class="c419a9d9-97b4-440a-a688-cb0d6c9b6fc7" d="M902.21289,128.97461c0-4.72559,3.15039-7.24609,8.07715-7.24609,4.9834,0,8.10449,2.5205,8.10449,7.24609v5.55664c0,4.69678-3.12109,7.16016-8.10449,7.16016-4.92676,0-8.07715-2.46338-8.07715-7.16016ZM910.29,138.541c2.63476,0,4.49609-1.31739,4.49609-4.23877v-5.127c0-2.83545-1.86133-4.2959-4.49609-4.2959-2.57813,0-4.46875,1.46045-4.46875,4.2959v5.127C905.82129,137.22363,907.71191,138.541,910.29,138.541Z" transform="translate(-390.25181 213)"/><path class="c419a9d9-97b4-440a-a688-cb0d6c9b6fc7" d="M932.48145,142.3501v4.81152l-.2002.20068-3.03613.40088-.2002-.20068V130.26367l-.83105-2.92138.17187-.229,2.77832-.37256.22949.17188.916,2.2915a3.9632,3.9632,0,0,1,3.78125-2.60644c2.34863,0,4.63965,1.68994,4.63965,5.041v4.83985c0,3.29394-2.46289,5.21289-5.55664,5.21289a5.07,5.07,0,0,1-2.86426-.83057Zm2.37793-3.60889a2.37773,2.37773,0,0,0,2.43359-2.69189v-3.80957a2.4431,2.4431,0,0,0-2.54883-2.77784,13.41383,13.41383,0,0,0-2.26269.42969v6.47266A2.12078,2.12078,0,0,0,934.85938,138.74121Z" transform="translate(-390.25181 213)"/><path class="c419a9d9-97b4-440a-a688-cb0d6c9b6fc7" d="M944.33691,130.26367l-.83105-2.92138.17187-.229,2.77832-.37256.2295.17188.916,2.2915a3.95078,3.95078,0,0,1,4.06739-2.66357l.20019.229-.31445,3.32227-.25781.20068a7.04858,7.04858,0,0,0-2.54981-.48682,3.52745,3.52745,0,0,0-.97363.08594V141.147l-.2002.20069h-3.03613l-.2002-.20069Z" transform="translate(-390.25181 213)"/><path class="c419a9d9-97b4-440a-a688-cb0d6c9b6fc7" d="M953.75781,131.896c0-3.32227,2.43457-5.29834,6.01465-5.29834,4.0957,0,5.55664,2.377,5.55664,4.52539a4.467,4.467,0,0,1-4.75488,4.46777,4.0223,4.0223,0,0,1-3.58008-1.86182l.2002,1.375v.71582c0,2.0625,1.03125,2.92139,2.63574,2.92139a2.89674,2.89674,0,0,0,2.77734-1.43213l.25781-.14306,2.66407.85937.14355.25781c-.85937,2.17676-3.09375,3.40821-5.72851,3.40821-3.89551,0-6.18653-1.77588-6.18653-5.21289Zm5.47071.94531c1.46,0,2.57714-.37207,2.57714-1.833,0-.71582-.62988-1.43213-2.11914-1.43213-1.57519,0-2.49218.85938-2.49218,2.63526v.25781A4.96223,4.96223,0,0,0,959.22852,132.84131Z" transform="translate(-390.25181 213)"/><path class="c419a9d9-97b4-440a-a688-cb0d6c9b6fc7" d="M968.21875,131.81006c0-3.09277,2.2627-5.2124,6.1582-5.2124a5.67114,5.67114,0,0,1,5.55567,3.46533l-.11426.25781-2.63477.88818-.28711-.11474a2.914,2.914,0,0,0-2.66308-1.54639,2.39934,2.39934,0,0,0-2.57813,2.6919v3.78076a2.4215,2.4215,0,0,0,2.57813,2.7207A2.84417,2.84417,0,0,0,977.04,137.252l.25781-.14306,2.66406.85937.14258.25733c-.916,2.2915-2.97851,3.46582-5.72754,3.46582-3.8955,0-6.1582-2.14795-6.1582-5.21289Z" transform="translate(-390.25181 213)"/><path class="c419a9d9-97b4-440a-a688-cb0d6c9b6fc7" d="M983.02441,123.96289v-3.09326l.2002-.17188h3.17871l.20117.17188v3.09326l-.20117.17188h-3.17871Zm.05664,3.35059.20118-.2002,3.03515-.40088.20117.2002V141.147l-.20117.20069h-3.03515l-.20118-.20069Z" transform="translate(-390.25181 213)"/><path class="c419a9d9-97b4-440a-a688-cb0d6c9b6fc7" d="M989.63965,139.80127l1.63183-2.11963.28711-.02881a6.161,6.161,0,0,0,3.06446,1.08838c1.20312,0,2.31933-.31494,2.31933-1.63232,0-.85938-1.17383-1.23145-2.43359-1.604-2.12012-.62988-4.69727-1.48925-4.69727-4.41064,0-3.15039,2.9209-4.49658,5.75684-4.49658a7.8279,7.8279,0,0,1,4.43945,1.43213l.02832.28613-1.66113,2.11963-.25781.02881a5.17933,5.17933,0,0,0-2.49219-.91651c-1.3457,0-2.31934.57276-2.31934,1.54639s1.20313,1.34619,2.52051,1.71826c2.11914.60156,4.61133,1.34619,4.61133,4.29639,0,3.523-2.69238,4.58252-5.72852,4.58252a8.6462,8.6462,0,0,1-5.01269-1.604Z" transform="translate(-390.25181 213)"/><path class="c419a9d9-97b4-440a-a688-cb0d6c9b6fc7" d="M1004.55859,133.64307c2.00489-1.23145,5.55664-.48682,6.10059-1.28858v-.71582c0-1.68994-1.08789-2.09082-2.37695-2.09082a4.73981,4.73981,0,0,0-2.9502,1.03076l-.28613-.05713-1.48926-2.09082.05762-.28662a7.58382,7.58382,0,0,1,4.69629-1.54638c3.2373,0,5.78613,1.26025,5.78613,4.63964v6.78809l.83008,2.92139-.17188.229-2.77832.37256-.22851-.17188-.917-2.34863a4.32984,4.32984,0,1,1-6.27246-5.38476Zm3.4375,5.2417a7.03219,7.03219,0,0,0,2.69239-.60157V133.729c-.74512,3.1792-4.61133,1.00245-4.61133,3.6377C1006.07715,138.25439,1006.793,138.88477,1007.99609,138.88477Z" transform="translate(-390.25181 213)"/><path class="c419a9d9-97b4-440a-a688-cb0d6c9b6fc7" d="M854.24805,159.52979h-5.26953l-.2002-.2002v-2.74951l.2002-.20069h14.57812l.14356.229-.7168,2.77832-.25781.14307H857.7998v15.98144l-.20019.20068h-3.15039l-.20117-.20068Z" transform="translate(-390.25181 213)"/><path class="c419a9d9-97b4-440a-a688-cb0d6c9b6fc7" d="M866.18945,156.58008l.2002-.20069h10.96973l.20019.20069v2.74951l-.20019.2002h-7.61915v4.46826h6.70215l.14356.229-.7168,2.77783-.25781.14356h-5.8711v5.41308h7.70508l.1709.229-.40039,2.74951-.22949.17187H866.38965l-.2002-.20068Z" transform="translate(-390.25181 213)"/><path class="c419a9d9-97b4-440a-a688-cb0d6c9b6fc7" d="M880.36426,173.73584l1.68945-2.23389.28613-.02881a7.33283,7.33283,0,0,0,4.06739,1.43213c1.71875,0,3.17871-.71631,3.17871-2.66357,0-1.66113-1.63184-2.2915-3.37891-2.9502-2.40625-.9165-5.18457-2.00488-5.18457-5.47021,0-3.58008,2.89258-5.72852,6.30176-5.72852a9.63075,9.63075,0,0,1,5.585,1.68994l.05664.28663-1.51758,2.31982-.28613.05713a6.38043,6.38043,0,0,0-3.72363-1.20264c-1.91895,0-2.80664,1.03076-2.80664,2.4917,0,1.46045,1.54589,2.09082,3.17871,2.6919,2.46289.88818,5.38476,2.09082,5.38476,5.78564,0,4.46777-3.72363,5.84277-6.78808,5.84277a11.1141,11.1141,0,0,1-5.98633-2.03369Z" transform="translate(-390.25181 213)"/><path class="c419a9d9-97b4-440a-a688-cb0d6c9b6fc7" d="M900.49609,159.52979h-5.26953l-.20019-.2002v-2.74951l.20019-.20069h14.57813l.14355.229-.71679,2.77832-.25782.14307h-4.92578v15.98144l-.20019.20068h-3.15039l-.20118-.20068Z" transform="translate(-390.25181 213)"/><path class="c419a9d9-97b4-440a-a688-cb0d6c9b6fc7" d="M915.875,156.72314l.2002-.20068,3.17871-.37207.20117.2002,6.874,19.16064-.20117.20068H922.834l-.20019-.20068-1.46094-4.38184H914.2998l-1.46093,4.38184-.2002.20068h-3.29394l-.2002-.20068Zm4.2959,11.42774L918.252,162.394l-.51562-1.89013-.51563,1.89013-1.91894,5.75684Z" transform="translate(-390.25181 213)"/><path class="c419a9d9-97b4-440a-a688-cb0d6c9b6fc7" d="M928.96094,156.58008l.20019-.20069h5.61328c3.55176,0,7.16016,1.48926,7.16016,5.87159a5.52465,5.52465,0,0,1-4.7832,5.585l.80273.97363,2.0332,2.92139a2.19712,2.19712,0,0,0,1.80469.97363,3.16437,3.16437,0,0,0,.916-.11475l.20019.20069-.458,2.74951-.2002.20068c-.17187.02832-.74512.05713-1.00293.05713a5.22473,5.22473,0,0,1-4.32422-2.43457l-3.32226-5.12646-.28711-.17188h-.80176v7.44629l-.2002.20068h-3.15039l-.20019-.20068Zm5.87109,8.50635c2.00488,0,3.55078-.77344,3.55078-2.83545,0-2.0625-1.5459-2.83545-3.55078-2.83545h-2.32031v5.6709Z" transform="translate(-390.25181 213)"/><path class="c419a9d9-97b4-440a-a688-cb0d6c9b6fc7" d="M945.65527,172.01709l.2002-.2002h3.49414l.20019.2002v3.49414l-.20019.20068h-3.49414l-.2002-.20068Z" transform="translate(-390.25181 213)"/><path class="c419a9d9-97b4-440a-a688-cb0d6c9b6fc7" d="M952.98633,172.01709l.20019-.2002h3.49414l.2002.2002v3.49414l-.2002.20068h-3.49414l-.20019-.20068Z" transform="translate(-390.25181 213)"/><path class="c419a9d9-97b4-440a-a688-cb0d6c9b6fc7" d="M960.31738,172.01709l.2002-.2002h3.49414l.20019.2002v3.49414l-.20019.20068h-3.49414l-.2002-.20068Z" transform="translate(-390.25181 213)"/><path class="c419a9d9-97b4-440a-a688-cb0d6c9b6fc7" d="M967.61914,162.02148l-.40039-5.4414.2002-.20069h3.03613l.20019.20069-.40039,5.4414-.20117.20069h-2.2334Zm4.9834,0-.40039-5.4414.20019-.20069h3.03614l.20019.20069-.40039,5.4414-.20117.20069h-2.2334Z" transform="translate(-390.25181 213)"/><path class="c419a9d9-97b4-440a-a688-cb0d6c9b6fc7" d="M631.35742-121.90186l-.60205-8.167.30127-.30078h4.55615l.30078.30078-.60156,8.167-.30127.30079H631.6582Zm7.479,0-.60157-8.167.30078-.30078h4.55616l.30127.30078-.602,8.167-.30079.30079H639.1377Z" transform="translate(-390.25181 213)"/><path class="c419a9d9-97b4-440a-a688-cb0d6c9b6fc7" d="M654.48291-125.6416h-7.90869l-.30127-.30078v-4.12647l.30127-.30078h21.87891l.21484.34375-1.07471,4.16943-.38672.21485H659.813v23.98535l-.30078.30078h-4.728l-.30127-.30078Z" transform="translate(-390.25181 213)"/><path class="c419a9d9-97b4-440a-a688-cb0d6c9b6fc7" d="M668.32471-115.54c0-4.98633,3.65332-7.95215,9.02636-7.95215,6.147,0,8.33887,3.56739,8.33887,6.79151,0,4.29834-3.43848,6.70556-7.13525,6.70556a6.03881,6.03881,0,0,1-5.37305-2.79394l.30078,2.063v1.0747c0,3.09473,1.54785,4.38428,3.95459,4.38428a4.34875,4.34875,0,0,0,4.16944-2.14893l.3872-.21533,3.99707,1.28955.21533.38721c-1.28955,3.2666-4.64257,5.11475-8.59716,5.11475-5.84571,0-9.28418-2.665-9.28418-7.82276Zm8.21,1.41846c2.19189,0,3.86816-.55908,3.86816-2.751,0-1.07471-.94531-2.14941-3.18066-2.14941-2.36426,0-3.73975,1.28955-3.73975,3.95459v.38672A7.43492,7.43492,0,0,0,676.53467-114.12158Z" transform="translate(-390.25181 213)"/><path class="c419a9d9-97b4-440a-a688-cb0d6c9b6fc7" d="M689.47314-103.67676l2.4502-3.18066.42969-.043a9.25073,9.25073,0,0,0,4.59961,1.6333c1.80517,0,3.48144-.47266,3.48144-2.4502,0-1.28955-1.7622-1.84814-3.65332-2.40673-3.18115-.9458-7.0498-2.23536-7.0498-6.61963,0-4.72852,4.38476-6.74854,8.64013-6.74854a11.74932,11.74932,0,0,1,6.6626,2.14893l.043.43017-2.49316,3.18067-.38721.043a7.76978,7.76978,0,0,0-3.73926-1.37549c-2.02051,0-3.48193.85986-3.48193,2.32129s1.80566,2.02,3.78271,2.5791c3.18067.90234,6.92041,2.02,6.92041,6.44726,0,5.28711-4.04052,6.87745-8.59668,6.87745a12.96908,12.96908,0,0,1-7.52246-2.40674Z" transform="translate(-390.25181 213)"/><path class="c419a9d9-97b4-440a-a688-cb0d6c9b6fc7" d="M711.1377-118.54883h-2.32129l-.30078-.30127v-3.82568l.30078-.30078h2.62207l.51562-4.42725.30127-.30078,3.73926-.55908.30127.30127v4.98584h6.834l.30127.30078-.9458,3.82568-.30078.30127H716.2959v9.06934c0,2.40722,1.07422,4.12646,2.92285,4.12646a7.45887,7.45887,0,0,0,3.35254-1.03174l.42969.08594,1.71972,3.31006-.08593.42969a10.67106,10.67106,0,0,1-5.93213,1.71924c-4.25537,0-7.56494-2.87989-7.56494-8.46778Z" transform="translate(-390.25181 213)"/><path class="c419a9d9-97b4-440a-a688-cb0d6c9b6fc7" d="M729.62109-112.918c3.00879-1.84863,8.33887-.731,9.15577-1.93457v-1.07471c0-2.53564-1.63331-3.13769-3.56788-3.13769a7.11172,7.11172,0,0,0-4.42724,1.54736l-.42969-.08594-2.23535-3.13769.08594-.42969a11.38266,11.38266,0,0,1,7.04931-2.32129c4.85743,0,8.68311,1.89112,8.68311,6.96338v10.187l1.24658,4.38477-.2583.34375-4.16943.55859-.34375-.25781-1.37549-3.5249a6.30855,6.30855,0,0,1-5.97461,3.99756,6.3488,6.3488,0,0,1-6.49072-6.49024A6.25483,6.25483,0,0,1,729.62109-112.918Zm5.15821,7.86572a10.55165,10.55165,0,0,0,4.04052-.90234v-6.83447c-1.11767,4.771-6.92041,1.50439-6.92041,5.459C731.89941-105.99756,732.97412-105.05225,734.7793-105.05225Z" transform="translate(-390.25181 213)"/><path class="c419a9d9-97b4-440a-a688-cb0d6c9b6fc7" d="M750.03906-117.99023l-1.24658-4.38428.2583-.34424,4.16943-.55859.34375.25781,1.37549,3.439c.90235-2.40722,2.79395-3.99756,6.10352-3.99756l.30078.34375-.47266,4.98633-.38671.30078a10.5694,10.5694,0,0,0-3.82569-.73095,5.27583,5.27583,0,0,0-1.46142.12939v16.89258l-.30079.30078h-4.55664l-.30078-.30078Z" transform="translate(-390.25181 213)"/><path class="c419a9d9-97b4-440a-a688-cb0d6c9b6fc7" d="M774.28271-115.54c0-4.98633,3.65333-7.95215,9.02637-7.95215,6.147,0,8.33887,3.56739,8.33887,6.79151,0,4.29834-3.43848,6.70556-7.13525,6.70556a6.0388,6.0388,0,0,1-5.37305-2.79394l.30078,2.063v1.0747c0,3.09473,1.54785,4.38428,3.95459,4.38428a4.34872,4.34872,0,0,0,4.16943-2.14893l.38721-.21533,3.99707,1.28955.21533.38721c-1.28955,3.2666-4.64258,5.11475-8.59717,5.11475-5.8457,0-9.28418-2.665-9.28418-7.82276Zm8.21,1.41846c2.19189,0,3.86816-.55908,3.86816-2.751,0-1.07471-.94531-2.14941-3.18066-2.14941-2.36426,0-3.73975,1.28955-3.73975,3.95459v.38672A7.43492,7.43492,0,0,0,782.49268-114.12158Zm-2.665-13.15332,2.79394-4.8999.30078-.17237h6.36182l.21484.17237-6.147,6.01757h-.25781l-3.22363-.85986Z" transform="translate(-390.25181 213)"/><path class="c419a9d9-97b4-440a-a688-cb0d6c9b6fc7" d="M805.5332-103.67676l2.44922-3.18066.43067-.043a9.24525,9.24525,0,0,0,4.59863,1.6333c1.80566,0,3.48242-.47266,3.48242-2.4502,0-1.28955-1.76269-1.84814-3.6543-2.40673-3.18066-.9458-7.04882-2.23536-7.04882-6.61963,0-4.72852,4.38378-6.74854,8.63964-6.74854a11.74868,11.74868,0,0,1,6.66211,2.14893l.043.43017-2.49316,3.18067-.38672.043a7.7673,7.7673,0,0,0-3.73926-1.37549c-2.02051,0-3.48144.85986-3.48144,2.32129s1.80468,2.02,3.78222,2.5791c3.18067.90234,6.9209,2.02,6.9209,6.44726,0,5.28711-4.041,6.87745-8.59765,6.87745a12.96369,12.96369,0,0,1-7.52149-2.40674Z" transform="translate(-390.25181 213)"/><path class="c419a9d9-97b4-440a-a688-cb0d6c9b6fc7" d="M825.65039-115.66895c0-5.07226,3.91113-7.82324,9.11231-7.82324s9.1123,2.751,9.1123,7.82324v7.00635c0,5.07178-3.91113,7.82276-9.1123,7.82276s-9.11231-2.751-9.11231-7.82276Zm9.11231,10.40186c2.45019,0,3.95507-1.41846,3.95507-4.0835v-5.67382c0-2.665-1.50488-4.04053-3.95507-4.04053-2.53614,0-3.95411,1.37549-3.95411,4.04053v5.67382C830.80859-106.68555,832.22656-105.26709,834.7627-105.26709Zm-3.30957-22.00781,2.79394-4.8999.30078-.17237h6.36133l.21484.17237-6.14648,6.01757h-.25781l-3.22364-.85986Z" transform="translate(-390.25181 213)"/><path class="c419a9d9-97b4-440a-a688-cb0d6c9b6fc7" d="M612.35889-78.48535l.30078-.30078h8.94043c6.92041,0,10.66015,3.56738,10.66015,9.45654,0,4.68506-3.09472,9.2417-9.45654,9.2417-1.97705,0-4.47021-.77393-5.37305-2.79443l.2583,2.665v10.1875l-.30126.25782h-4.728l-.30078-.25782Zm8.46777,14.1416c2.96582,0,6.10352-1.37549,6.10352-4.98584,0-3.00879-1.89112-4.90039-5.373-4.90039H617.689v9.32764A9.05977,9.05977,0,0,0,620.82666-64.34375Z" transform="translate(-390.25181 213)"/><path class="c419a9d9-97b4-440a-a688-cb0d6c9b6fc7" d="M637.3335-78.48535l.30078-.30078h16.46289l.30078.30078v4.12646l-.30078.30078h-11.4336v6.70557h10.05811l.21484.34375-1.0747,4.16992-.38672.21485h-8.81153V-54.5h11.5625l.25782.34375-.60157,4.12646-.34423.25782H637.63428l-.30078-.30078Z" transform="translate(-390.25181 213)"/><path class="c419a9d9-97b4-440a-a688-cb0d6c9b6fc7" d="M660.6748-78.48535l.30079-.30078h8.4248c5.33008,0,10.74609,2.23535,10.74609,8.81152,0,7.47949-7.17822,8.38184-7.17822,8.38184l1.20362,1.46142,3.05175,4.38477a3.29816,3.29816,0,0,0,2.708,1.46142,4.76227,4.76227,0,0,0,1.37549-.17187l.30078.30078-.688,4.12646-.30078.30079a15.01462,15.01462,0,0,1-1.50439.08593,7.84452,7.84452,0,0,1-6.49073-3.65381l-4.98584-7.69384-.43017-.25782h-1.20313v11.17579l-.30127.30078h-4.728l-.30079-.30078Zm8.81153,12.76611c3.00879,0,5.33008-1.16015,5.33008-4.25537,0-3.09473-2.32129-4.25537-5.33008-4.25537h-3.48145v8.51074Z" transform="translate(-390.25181 213)"/><path class="c419a9d9-97b4-440a-a688-cb0d6c9b6fc7" d="M686.896-78.48535l.30078-.30078h10.48828c7.39307,0,12.07812,3.73974,12.07812,10.74609v7.60791c0,7.09229-4.68505,10.66016-12.07812,10.66016H687.19678l-.30078-.30078ZM697.68506-54.5c3.86816,0,6.66211-1.93457,6.66211-6.27588v-6.92041c0-4.29834-2.79395-6.36182-6.66211-6.36182h-5.459V-54.5Z" transform="translate(-390.25181 213)"/><path class="c419a9d9-97b4-440a-a688-cb0d6c9b6fc7" d="M722.832-78.27051l.30078-.30078,4.771-.55859.30078.30078L738.521-50.07275l-.30079.30078h-4.94335l-.30079-.30078-2.19238-6.57666H720.46777l-2.19238,6.57666-.30078.30078h-4.94336l-.30078-.30078Zm6.44727,17.15088-2.87989-8.64014-.77343-2.83691-.77393,2.83691-2.87988,8.64014Z" transform="translate(-390.25181 213)"/><path class="c419a9d9-97b4-440a-a688-cb0d6c9b6fc7" d="M751.11621-64.08545c0-4.94336,3.69629-7.82324,8.33887-7.82324a7.60619,7.60619,0,0,1,4.29834,1.24658l-.25781-2.23535v-7.65088l.30078-.30127,4.55615-.60156.30078.30078V-54.7583l1.24658,4.38476-.25781.34375-4.16943.5586-.34375-.25781-1.37549-3.43848a5.94717,5.94717,0,0,1-5.67383,3.91113c-3.5249,0-6.96338-2.53564-6.96338-7.56494Zm8.9834,10.53076a20.12118,20.12118,0,0,0,3.396-.64453v-9.71435c0-2.36426-1.24659-3.56788-3.56788-3.56788-2.106,0-3.6538,1.37549-3.6538,4.04053v5.7168C756.27393-54.7583,758.03662-53.55469,760.09961-53.55469Z" transform="translate(-390.25181 213)"/><path class="c419a9d9-97b4-440a-a688-cb0d6c9b6fc7" d="M774.07031-63.95654c0-4.98633,3.65332-7.95215,9.02637-7.95215,6.147,0,8.33887,3.56787,8.33887,6.7915,0,4.29834-3.43848,6.70557-7.13526,6.70557a6.03879,6.03879,0,0,1-5.373-2.794l.30078,2.063v1.07471c0,3.09473,1.54736,4.38428,3.95459,4.38428a4.34873,4.34873,0,0,0,4.16943-2.14893l.38721-.21533,3.99707,1.28955.21533.38721c-1.28955,3.2666-4.64258,5.11474-8.59717,5.11474-5.8457,0-9.28418-2.665-9.28418-7.82275Zm8.21,1.41845c2.1919,0,3.86817-.55908,3.86817-2.751,0-1.07471-.94531-2.14942-3.18067-2.14942-2.36425,0-3.73974,1.28955-3.73974,3.95459v.38672A7.43474,7.43474,0,0,0,782.28027-62.53809Z" transform="translate(-390.25181 213)"/><path class="c419a9d9-97b4-440a-a688-cb0d6c9b6fc7" d="M667.936-22.47461h-7.9087l-.30127-.30078v-4.12647l.30127-.30078h21.87891l.21484.34375-1.0747,4.16944-.38672.21484h-7.39356V1.51074l-.30078.30078h-4.728l-.30126-.30078Z" transform="translate(-390.25181 213)"/><path class="c419a9d9-97b4-440a-a688-cb0d6c9b6fc7" d="M685.86133-26.90186l.30078-.30078H702.625l.30078.30078v4.12647l-.30078.30078H691.19141V-15.769h10.0581l.21485.34375-1.07471,4.16943-.38672.21533h-8.81152v8.124h11.5625l.25781.34375-.60156,4.12646-.34375.25781h-15.9043l-.30078-.30078Z" transform="translate(-390.25181 213)"/><path class="c419a9d9-97b4-440a-a688-cb0d6c9b6fc7" d="M709.20264-26.687l.30078-.30078,4.42724-.51563.38672.21485,9.1128,16.03271L732.2417-26.73l.34424-.25781,4.68506-.51563.38671.21485V1.51074l-.30078.30078h-4.64209l-.30078-.30078V-17.74609l-1.50488,3.13769L725.8374-5.96875l-.38672.30127h-4.04052l-.38721-.30127-5.11475-8.68262-1.37549-2.92285v19.085l-.30126.30078h-4.728l-.30078-.30078Z" transform="translate(-390.25181 213)"/><path class="c419a9d9-97b4-440a-a688-cb0d6c9b6fc7" d="M745.2251-26.90186l.30078-.30078h8.94043c6.92041,0,10.66015,3.56787,10.66015,9.45655,0,4.685-3.09472,9.24121-9.45654,9.24121-1.97705,0-4.47021-.77344-5.373-2.794l.2583,2.665V1.55371l-.30127.25781h-4.728l-.30078-.25781Zm8.46777,14.14161c2.96582,0,6.10352-1.37549,6.10352-4.98584,0-3.00879-1.89112-4.90039-5.373-4.90039h-3.86816v9.32763A9.05971,9.05971,0,0,0,753.69287-12.76025Z" transform="translate(-390.25181 213)"/><path class="c419a9d9-97b4-440a-a688-cb0d6c9b6fc7" d="M769.21094-16.75781c0-7.09229,4.728-10.87451,12.12158-10.87451,7.479,0,12.16455,3.78222,12.16455,10.87451v8.33935c0,7.04932-4.68555,10.74561-12.16455,10.74561-7.39356,0-12.12158-3.69629-12.12158-10.74561ZM781.33252-2.40088c3.95459,0,6.74853-1.97705,6.74853-6.36182v-7.69384c0-4.25537-2.79394-6.44776-6.74853-6.44776-3.86865,0-6.70557,2.19239-6.70557,6.44776V-8.7627C774.627-4.37793,777.46387-2.40088,781.33252-2.40088Z" transform="translate(-390.25181 213)"/><path class="c419a9d9-97b4-440a-a688-cb0d6c9b6fc7" d="M798.52783-3.7334l.30078-.30078h5.24366l.30175.30078V1.51074l-.30175.30078h-5.24366l-.30078-.30078Z" transform="translate(-390.25181 213)"/><path class="c419a9d9-97b4-440a-a688-cb0d6c9b6fc7" d="M809.53125-3.7334l.30078-.30078h5.24414l.30078.30078V1.51074l-.30078.30078H809.832l-.30078-.30078Z" transform="translate(-390.25181 213)"/><path class="c419a9d9-97b4-440a-a688-cb0d6c9b6fc7" d="M820.53516-3.7334l.30078-.30078h5.24414l.30078.30078V1.51074l-.30078.30078h-5.24414l-.30078-.30078Z" transform="translate(-390.25181 213)"/><path class="c419a9d9-97b4-440a-a688-cb0d6c9b6fc7" d="M831.49609-18.73486l-.60156-8.167.30078-.30078H835.751l.30175.30078-.60253,8.167-.30079.30078h-3.35253Zm7.4795,0-.60254-8.167.30175-.30078h4.55567l.30078.30078-.60156,8.167-.30078.30078h-3.35254Z" transform="translate(-390.25181 213)"/><path class="c419a9d9-97b4-440a-a688-cb0d6c9b6fc7" d="M674,314.93333l23.46667,13.2v-8.8L684.26667,312l13.2-7.33333V294.4Q685.73337,301.73332,674,309.06667Z" transform="translate(-390.25181 213)"/><path class="c419a9d9-97b4-440a-a688-cb0d6c9b6fc7" d="M747.33333,314.93333l-23.46666,13.2v-8.8l13.2-7.33333-13.2-7.33333V294.4l23.46666,14.66667Z" transform="translate(-390.25181 213)"/><polygon class="c419a9d9-97b4-440a-a688-cb0d6c9b6fc7" points="310.148 547 323.348 503 332.148 503 318.948 547 310.148 547"/><path class="4cafc54c-f94d-403a-8622-d4218eb6fbeb" d="M597.88282,140.04012a96.07286,96.07286,0,0,0,30.65033,79.76481A160.96211,160.96211,0,0,1,550.952,188.15944Q574.41739,164.09977,597.88282,140.04012Z" transform="translate(-390.25181 213)"/><path class="4cafc54c-f94d-403a-8622-d4218eb6fbeb" d="M762.97824,38.8591a249.15412,249.15412,0,0,0-50.61033,141.30826,191.88962,191.88962,0,0,1-36.6693-136.767Z" transform="translate(-390.25181 213)"/><path class="4cafc54c-f94d-403a-8622-d4218eb6fbeb" d="M866.34106,192.68007c-13.43225,1.85448-27.86724,4.36874-43.11627,7.76694C807.63007,203.92224,793.195,207.87375,780,212a298.8316,298.8316,0,0,1,38.85419-68.84247Q842.59766,167.9188,866.34106,192.68007Z" transform="translate(-390.25181 213)"/><path class="5bcca8c4-3552-4046-be66-90a49181156a" d="M759,247H720a19.56195,19.56195,0,0,1,39,0Z" transform="translate(-390.25181 213)"/><path class="5bcca8c4-3552-4046-be66-90a49181156a" d="M700,247H661a19.56195,19.56195,0,0,1,39,0Z" transform="translate(-390.25181 213)"/></svg>